# xmcd
# 
# Track frame offsets:
#     150
#     16295
#     26547
#     39477
#     52157
#     66620
#     81967
#     99995
#     115677
#     129350
#     146285
#     156462
#     173055
# 
# Disc length: 2569
# 
# Revision: 5
# Processed by: cddbd v1.5.2PL0 Copyright (c) Steve Scherf et al.
# Submitted via: BonkEnc v1.0.8
# 
DISCID=ab0a070d
DTITLE=John Lee Hooker - The Country Blues Of John Lee Hooker
DYEAR=1991
DGENRE=Blues
TTITLE0=Black Snake
TTITLE1=How Long Blues
TTITLE2=Wobblin' Baby
TTITLE3=She's Long, She's Tall, She Weeps Like A Willow Tree
TTITLE4=Pea Vine Special
TTITLE5=Tupelo Blues
TTITLE6=I'm Prison Bound
TTITLE7=I Rowed A Little Boat
TTITLE8=Water Boy
TTITLE9=Church Bell Tone
TTITLE10=Bundle Up And Go
TTITLE11=Good Mornin', Lil' School Girl
TTITLE12=Behind The Plow
EXTD=
EXTT0=
EXTT1=
EXTT2=
EXTT3=
EXTT4=
EXTT5=
EXTT6=
EXTT7=
EXTT8=
EXTT9=
EXTT10=
EXTT11=
EXTT12=
PLAYORDER=
